<svg viewBox="0 0 437.38 65.15" xmlns="http://www.w3.org/2000/svg"><g transform="translate(-4.96 -4.67)"><g fill="#e98424"><path d="m54.2 33.29v30.87h-2.06v-32.16a46.07 46.07 0 0 1 15.8-3.25v2a48.38 48.38 0 0 0 -13.74 2.54" stroke="#e98424" stroke-miterlimit="10"/><path d="m102.45 43.4v10.86c0 9.23-9.6 10.41-13.88 10.41-4.57 0-14.4-1.47-14.4-10.67 0-10.19 12.26-10.93 16.39-10.93a49.05 49.05 0 0 1 9.82 1c0-8.57-3-13.37-12.7-13.37a35.1 35.1 0 0 0 -9.75 1.48v-2a34.81 34.81 0 0 1 9.82-1.48c10.78 0 14.69 5.24 14.69 14.62m-2 2.58a52.31 52.31 0 0 0 -9.67-1c-4.28 0-14.55.59-14.55 9 0 7.38 8 8.79 12.33 8.79 4.14 0 11.89-1.26 11.89-8.57v-8.12z" stroke="#e98424" stroke-miterlimit="10"/><path d="m142.13 41.41v22.74h-2.07v-22.74c0-6.87-3.4-10.63-11.3-10.63a30.31 30.31 0 0 0 -12.91 3.22v30.2h-2.07v-31.43a32.55 32.55 0 0 1 15.22-4.06c8.27 0 13.14 3.91 13.14 12.7" stroke="#e98424" stroke-miterlimit="10"/><path d="m169 28.71a31.45 31.45 0 0 1 11 2.07v-15h2.07v38.33c0 2.66-1.4 10.56-13.59 10.56-6.13 0-15.58-2.29-15.58-18.17 0-14.55 8.34-17.8 16-17.8m-.44 34.12c9.38 0 11.52-5.61 11.52-8.64v-21.34a29.34 29.34 0 0 0 -10.98-2.21c-7.75 0-14 3.47-14 15.88 0 14.33 8 16.32 13.51 16.32" stroke="#e98424" stroke-miterlimit="10"/><path d="m225.34 46.8c0 14.69-8.79 17.87-16.17 17.87s-16.4-3.17-16.4-17.87 8.94-18.09 16.39-18.09 16.18 3.29 16.18 18.09m-2.07 0c0-12.7-6.72-16.17-14.1-16.17s-14.33 3.47-14.33 16.17 6.94 16 14.33 16 14.1-3.47 14.1-16" stroke="#e98424" stroke-miterlimit="10"/><path d="m264.21 41.41v22.74h-2.07v-22.74c0-6.87-3.4-10.63-11.3-10.63a30.3 30.3 0 0 0 -12.92 3.22v30.2h-2.07v-31.43a32.55 32.55 0 0 1 15.21-4.06c8.27 0 13.14 3.91 13.14 12.7" stroke="#e98424" stroke-miterlimit="10"/></g><path d="m317.51 64.06-13.23-20.42h-14.15v20.42h-3.82v-49.18h17.44c10.4 0 16.25 5.12 16.25 14.12 0 10.17-7.8 13.39-11.78 14l13.69 21h-4.44zm-27.38-45.58v21.52h13.38c9.79 0 12.7-5 12.7-10.79 0-5.51-2.52-10.78-12.7-10.78h-13.38z" fill="#3a74a7"/><path d="m361.18 45.7a13.52 13.52 0 0 1 -.08 2h-28.52a10 10 0 0 0 .69 3.29c1.07 7.19 6.12 9.94 13.31 9.94 4.51 0 9-.92 12.09-2.6v3.9a31.11 31.11 0 0 1 -12.39 2.37c-8.41 0-17.59-3.6-17.59-18.36 0-5.89 1.84-19.89 16.52-19.89 15.83 0 16 16.9 16 19.35m-28.61-1.38h24.7c0-1.84-.46-14.38-12.31-14.38-8 0-12 5.35-12.39 14.38" fill="#3a74a7"/><path d="m402.33 45.7a13.51 13.51 0 0 1 -.08 2h-28.52a10 10 0 0 0 .69 3.29c1.07 7.19 6.12 9.94 13.31 9.94 4.51 0 9-.92 12.09-2.6v3.9a31.11 31.11 0 0 1 -12.39 2.37c-8.41 0-17.59-3.6-17.59-18.36 0-5.89 1.84-19.89 16.52-19.89 15.83 0 16 16.9 16 19.35m-28.61-1.38h24.7c0-1.84-.46-14.38-12.31-14.38-8 0-12 5.35-12.39 14.38" fill="#3a74a7"/><path d="m428 26.35a31.51 31.51 0 0 1 10.56 1.76v-15.45h3.75v40.46c0 2.83-1.3 11.55-14.84 11.55-6.27 0-16.44-2.52-16.44-19.5 0-15.53 9-18.82 17-18.82m-.54 34.8c8.26 0 11.09-4 11.09-7.88v-21.33a27.89 27.89 0 0 0 -10.58-2.07c-8.11 0-13.15 3.9-13.15 15.3 0 14.23 7.34 16 12.62 16" fill="#3a74a7"/><path d="m41.54 52.07h-7.66a20.06 20.06 0 0 0 -4.11-11 21.19 21.19 0 0 0 -6.45-5.33c-.54-.3-1.5-.73-2.07-1s-.74-.24-1.3-.44c.18 0 .62-.19.71-.22l.34-.08c.32-.12.6-.25.91-.4a14 14 0 0 0 1.81-1.08q.48-.34.94-.71a14 14 0 0 0 4.18-6 31.65 31.65 0 0 0 1.47-5.51c1.15-6.65-2.31-11.14-14.82-9.86-1.06.11-2.9.39-3.26 1.64a9.44 9.44 0 0 0 -.34 2.45q0 1 0 2.1v3.56q0 4.84 0 9.68 0 5.07 0 10.14 0 4.09 0 8.18v3.79.08h-6.89v-37.6c0-1.47 0-2.93 0-4.4a6.45 6.45 0 0 1 .69-3.31 3.47 3.47 0 0 1 2.31-1.36 58.68 58.68 0 0 1 8-.69c4.57-.08 8.82 0 13.39 1.27 2.61.74 5.17 1.54 7 4.1a15.33 15.33 0 0 1 2.64 9.65 25.12 25.12 0 0 1 -1.58 7.14 13.52 13.52 0 0 1 -3.42 5.56 5.89 5.89 0 0 1 -1.43 1 16.32 16.32 0 0 1 -1.62.55s10.56 1.78 10.56 18.1z" fill="#3a74a7"/><path d="m34 54.19h7.57s2.78 15.63-12 15.63h-17.86s-6.71.01-6.71-4.36v-11.27h6.9s-.82 9.4 4.25 9.55c17.66.51 17.85-.05 17.85-9.55" fill="#e98424"/></g></svg>