<?xml version="1.0" encoding="utf-8"?>
<!-- Generator: Adobe Illustrator 22.1.0, SVG Export Plug-In . SVG Version: 6.00 Build 0)  -->
<svg version="1.1" id="Capa_1" xmlns="http://www.w3.org/2000/svg" xmlns:xlink="http://www.w3.org/1999/xlink" x="0px" y="0px"
	 viewBox="0 0 512 512" style="enable-background:new 0 0 512 512;" xml:space="preserve">
<style type="text/css">
	.st0{fill:#FFFFFF;}
</style>
<g>
	<g>
		<path class="st0" d="M164.8,217.1c4.7,30.3,28.1,68.9,66.6,82.5c15.8,5.5,33.1,5.6,48.9-0.1c37.8-13.7,62-52.2,66.8-82.4
			c5.1-0.4,11.8-7.5,19-33.1c9.9-34.9-0.6-40.1-9.5-39.2c1.7-4.8,3-9.6,3.8-14.3C375.4,40,330.9,37,330.9,37s-7.4-14.2-26.8-24.9
			c-13-7.7-31.2-13.7-55-11.7c-7.7,0.3-15.1,1.9-21.9,4.1l0,0c-8.8,3-16.9,7.3-24.2,12.4c-8.9,5.6-17.4,12.6-24.8,20.6
			c-11.8,12.1-22.3,27.7-26.8,47.1c-3.8,14.5-3,29.7,0.2,46l0,0c0.8,4.8,2.1,9.5,3.8,14.3c-8.9-0.8-19.4,4.3-9.5,39.2
			C153.1,209.6,159.8,216.7,164.8,217.1z"/>
		<path class="st0" d="M430.8,335.7c-54.2-13.8-98.2-44.7-98.2-44.7l-34.3,108.7l-6.5,20.5l-0.1-0.3l-5.6,17.4L268,385.7
			c44.5-62.1-9-61.5-12-61.4c-3-0.1-56.5-0.7-12,61.4l-18.1,51.4l-5.6-17.4l-0.1,0.3l-6.5-20.5L179.3,291c0,0-44,31-98.2,44.7
			c-40.4,10.3-42.3,56.9-40.7,79.9c0,0,2.3,31.3,4.7,45.1c0,0,78.9,51.2,211,51.3c132.1,0,211-51.3,211-51.3
			c2.3-13.8,4.7-45.1,4.7-45.1C473.1,392.6,471.2,346,430.8,335.7z"/>
	</g>
</g>
</svg>
