<svg viewBox="0 0 122.67 217.58" xmlns="http://www.w3.org/2000/svg"><g transform="translate(-38.66 -1.08)"><path d="m160.85 159.38h-25.6c-1-13.23-5.4-26.15-13.74-36.67a70.78 70.78 0 0 0 -21.51-17.79c-1.8-1-5-2.43-6.91-3.23s-2.45-.79-4.35-1.48c.59-.14 2.05-.63 2.37-.72.55-.17.6-.22 1.14-.43 1.08-.41 2-.82 3-1.33a46.81 46.81 0 0 0 6.05-3.61q1.6-1.13 3.13-2.37a46.85 46.85 0 0 0 14-20 105.69 105.69 0 0 0 4.9-18.4c3.88-22.34-7.76-37.32-49.46-33-3.55.36-9.67 1.3-10.89 5.48a31.53 31.53 0 0 0 -1.15 8.17q0 3.5 0 7v11.9q0 16.17 0 32.33 0 16.94 0 33.88 0 13.66 0 27.33v12.64.26h-23.11v-125.58c0-4.9 0-9.79-.05-14.69 0-1.52 0-8 2.29-11.06a11.57 11.57 0 0 1 7.77-4.54 196 196 0 0 1 26.77-2.3c15.26-.28 29.47-.1 44.73 4.24 8.71 2.48 17.28 5.15 23.5 13.68 6.67 9.14 9.41 21.35 8.81 32.23a83.9 83.9 0 0 1 -5.29 23.83c-2.49 6.88-5.89 13.54-11.41 18.56a19.68 19.68 0 0 1 -4.77 3.29 54.51 54.51 0 0 1 -5.4 1.83s35.18 6.05 35.18 60.55z" fill="#3a74a6"/><path d="m135.56 166.47h25.66s4.35 52.2-40.47 52.2h-59.52s-22.51 0-22.51-14.57v-37.63h23.13s-2.75 31.36 14.15 31.86c59 1.73 59.52-.15 59.52-31.86" fill="#e98324"/></g></svg>